# xmcd
#
# Track frame offsets: 
#        150
#        22244
#        37989
#        51886
#        68595
#        87320
#        106336
#
# Disc length: 1651 seconds
#
# Revision: 1
# Processed by: cddbd v1.5.2PL0 Copyright (c) Steve Scherf et al.
# Submitted via: ExactAudioCopy v1.0b3
#
DISCID=55067107
DTITLE=London Grammar - Truth Is A Beautiful Thing (Deluxe Edition) (C
DTITLE=D 2)
DYEAR=2017
DGENRE=Trip-Hop
TTITLE0=What A Day
TTITLE1=Different Breeds
TTITLE2=Control
TTITLE3=Trials (Demo)
TTITLE4=May The Best (Church Mix)
TTITLE5=Rooting For You (Demo)
TTITLE6=Bitter Sweet Symphony (The Verve cover) (Live at BBC Maida Val
TTITLE6=e)
EXTD=
EXTT0=
EXTT1=
EXTT2=
EXTT3=
EXTT4=
EXTT5=
EXTT6=
PLAYORDER=
